<svg width="40" height="40" viewBox="0 0 40 40" fill="none" xmlns="http://www.w3.org/2000/svg">
<path d="M40 20C40 25.5228 37.7614 30.5228 34.1421 34.1421C30.5228 37.7614 25.5228 40 20 40C14.4772 40 9.47715 37.7614 5.85786 34.1421C2.23858 30.5228 0 25.5228 0 20C0 14.4772 2.23858 9.47715 5.85786 5.85786C9.47715 2.23858 14.4772 0 20 0C25.5228 0 30.5228 2.23858 34.1421 5.85786C37.7614 9.47715 40 14.4772 40 20Z" fill="#4D5AE5"/>
<g clip-path="url(#clip0_431671_2300)">
<path d="M23.997 11.985H26.188V8.169C25.81 8.117 24.51 8 22.996 8C19.837 8 17.673 9.987 17.673 13.639V17H14.187V21.266H17.673V32H21.947V21.267H25.292L25.823 17.001H21.946V14.062C21.947 12.829 22.279 11.985 23.997 11.985Z" fill="#F4F4FD"/>
</g>
<defs>
<clipPath id="clip0_431671_2300">
<rect width="24" height="24" fill="white" transform="translate(7.99997 8)"/>
</clipPath>
</defs>
</svg>
