<svg width="40" height="40" viewBox="0 0 40 40" fill="none" xmlns="http://www.w3.org/2000/svg">
<path d="M40 19.9999C40 25.5228 37.7614 30.5228 34.1421 34.1421C30.5228 37.7614 25.5228 39.9999 20 39.9999C14.4772 39.9999 9.47715 37.7614 5.85786 34.1421C2.23858 30.5228 0 25.5228 0 19.9999C0 14.4771 2.23858 9.47709 5.85786 5.8578C9.47715 2.23852 14.4772 -6.10352e-05 20 -6.10352e-05C25.5228 -6.10352e-05 30.5228 2.23852 34.1421 5.8578C37.7614 9.47709 40 14.4771 40 19.9999Z" fill="#4D5AE5"/>
<g clip-path="url(#clip0_795352_66)">
<path d="M27.996 28V27.9993H28V22.1313C28 19.2606 27.382 17.0493 24.026 17.0493C22.4127 17.0493 21.33 17.9346 20.888 18.774H20.8414V17.3173H17.6594V27.9993H20.9727V22.71C20.9727 21.3173 21.2367 19.9706 22.9614 19.9706C24.6607 19.9706 24.686 21.56 24.686 22.7993V28H27.996Z" fill="#F4F4FD"/>
<path d="M12.264 17.3179H15.5814V27.9999H12.264V17.3179Z" fill="#F4F4FD"/>
<path d="M13.9214 11.9999C12.8607 11.9999 12 12.8606 12 13.9213C12 14.9819 12.8607 15.8606 13.9214 15.8606C14.982 15.8606 15.8427 14.9819 15.8427 13.9213C15.842 12.8606 14.9814 11.9999 13.9214 11.9999V11.9999Z" fill="#F4F4FD"/>
</g>
<defs>
<clipPath id="clip0_795352_66">
<rect width="16" height="16" fill="white" transform="translate(12 11.9999)"/>
</clipPath>
</defs>
</svg>
